<svg xmlns="http://www.w3.org/2000/svg" xmlns:xlink="http://www.w3.org/1999/xlink" version="1.1" x="0px" y="0px" viewBox="0 0 100 125" enable-background="new 0 0 100 100" xml:space="preserve"><g><path d="M73.667,22.198c3.348,0,6.062,2.714,6.062,6.062c0,3.35-2.715,6.053-6.062,6.053c-3.347,0-6.052-2.703-6.052-6.053   C67.615,24.913,70.32,22.198,73.667,22.198z"/><path d="M22.818,14.577c-1.114-3.912-4.277-8.711-11.205-8.711c-2.974,0-5.419,0.942-7.269,2.8c-3.356,3.372-3.37,8.54-3.369,8.75   v75.758c0,1.03,0.835,1.864,1.864,1.864c1.03,0,1.865-0.834,1.865-1.864V17.408c0-0.039,0.043-3.862,2.283-6.111   c1.14-1.146,2.653-1.702,4.626-1.702c5.047,0,6.902,3.522,7.582,5.87c-5.309,2.207-8.455,7.945-7.197,13.764l23.73-5.132   C34.42,18.051,28.823,14.051,22.818,14.577z"/><path d="M18.975,79.498c-1.096,0-1.973-0.878-1.973-1.954c0-1.097,0.877-1.973,1.973-1.973c1.074,0,1.974,0.876,1.974,1.973   C20.949,78.62,20.049,79.498,18.975,79.498L18.975,79.498z M18.975,72.501c-1.096,0-1.973-0.9-1.973-1.977   c0-1.096,0.877-1.972,1.973-1.972c1.074,0,1.974,0.876,1.974,1.972C20.949,71.601,20.049,72.501,18.975,72.501L18.975,72.501z    M18.975,65.483c-1.096,0-1.973-0.9-1.973-1.976c0-1.096,0.877-1.975,1.973-1.975c1.074,0,1.974,0.879,1.974,1.975   C20.949,64.583,20.049,65.483,18.975,65.483L18.975,65.483z M18.975,58.461c-1.096,0-1.973-0.896-1.973-1.972   c0-1.097,0.877-1.996,1.973-1.996c1.074,0,1.974,0.899,1.974,1.996C20.949,57.564,20.049,58.461,18.975,58.461L18.975,58.461z    M18.975,51.445c-1.096,0-1.973-0.9-1.973-1.975c0-1.096,0.877-1.974,1.973-1.974c1.074,0,1.974,0.877,1.974,1.974   C20.949,50.545,20.049,51.445,18.975,51.445L18.975,51.445z M18.975,44.426c-1.096,0-1.973-0.9-1.973-1.973   c0-1.098,0.877-1.975,1.973-1.975c1.074,0,1.974,0.877,1.974,1.975C20.949,43.526,20.049,44.426,18.975,44.426L18.975,44.426z    M18.975,37.407c-1.096,0-1.973-0.898-1.973-1.973c0-1.097,0.877-1.974,1.973-1.974c1.074,0,1.974,0.877,1.974,1.974   C20.949,36.508,20.049,37.407,18.975,37.407L18.975,37.407z"/><path d="M35.951,95.179c-0.964,0-1.777-0.679-1.951-1.645c-0.087-0.504,0.021-1.031,0.329-1.47c0.307-0.416,0.769-0.7,1.272-0.812   c1.097-0.198,2.105,0.548,2.281,1.623c0.086,0.506-0.022,1.031-0.33,1.47c-0.285,0.439-0.745,0.725-1.272,0.812   C36.17,95.179,36.061,95.179,35.951,95.179L35.951,95.179z M34.745,88.271c-0.964,0-1.777-0.703-1.953-1.646   c-0.087-0.506,0.023-1.032,0.329-1.47c0.308-0.438,0.768-0.723,1.295-0.812c1.074-0.175,2.083,0.548,2.281,1.601   c0.088,0.526-0.044,1.054-0.33,1.492c-0.306,0.416-0.767,0.7-1.293,0.789C34.965,88.25,34.854,88.271,34.745,88.271L34.745,88.271z    M33.538,81.36c-0.965,0-1.776-0.701-1.93-1.645c-0.197-1.074,0.527-2.105,1.601-2.28c1.075-0.22,2.105,0.548,2.281,1.602   c0.088,0.525-0.021,1.052-0.329,1.47c-0.307,0.439-0.767,0.725-1.272,0.812C33.78,81.34,33.648,81.36,33.538,81.36L33.538,81.36z    M32.354,74.43c-0.966,0-1.799-0.679-1.952-1.645c-0.088-0.504,0.021-1.03,0.328-1.447c0.308-0.438,0.746-0.723,1.273-0.813   c1.096-0.196,2.105,0.551,2.281,1.604c0.197,1.074-0.527,2.084-1.601,2.28C32.573,74.43,32.464,74.43,32.354,74.43L32.354,74.43z    M31.148,67.521c-0.965,0-1.777-0.68-1.953-1.645c-0.087-0.505,0.022-1.031,0.33-1.469c0.306-0.419,0.767-0.725,1.271-0.812   c1.097-0.199,2.106,0.548,2.282,1.62c0.087,0.507-0.021,1.033-0.329,1.47c-0.307,0.418-0.745,0.703-1.272,0.813   C31.367,67.521,31.258,67.521,31.148,67.521L31.148,67.521z M29.942,60.612c-0.965,0-1.777-0.703-1.953-1.645   c-0.088-0.507,0.022-1.03,0.329-1.469c0.308-0.438,0.768-0.725,1.295-0.813c1.074-0.172,2.083,0.549,2.28,1.601   c0.087,0.526-0.043,1.054-0.329,1.493c-0.306,0.417-0.768,0.701-1.293,0.79C30.161,60.591,30.051,60.612,29.942,60.612   L29.942,60.612z M28.734,53.682c-0.964,0-1.777-0.68-1.93-1.624c-0.197-1.073,0.527-2.105,1.601-2.28   c1.097-0.198,2.105,0.548,2.281,1.6c0.088,0.526-0.021,1.053-0.329,1.47c-0.308,0.439-0.768,0.725-1.272,0.812   C28.955,53.682,28.845,53.682,28.734,53.682L28.734,53.682z M27.528,46.772c-0.943,0-1.776-0.679-1.93-1.622   c-0.198-1.076,0.526-2.105,1.601-2.282c1.097-0.196,2.105,0.527,2.281,1.602c0.197,1.075-0.526,2.084-1.601,2.281   C27.77,46.772,27.638,46.772,27.528,46.772L27.528,46.772z M26.344,39.864c-0.965,0-1.777-0.702-1.952-1.646   c-0.197-1.074,0.527-2.083,1.601-2.281c1.119-0.197,2.105,0.548,2.281,1.623c0.088,0.505-0.021,1.031-0.329,1.469   c-0.307,0.417-0.745,0.725-1.272,0.813C26.564,39.843,26.454,39.864,26.344,39.864L26.344,39.864z M25.138,32.955   c-0.965,0-1.776-0.701-1.952-1.645c-0.176-1.075,0.548-2.105,1.623-2.281c1.075-0.197,2.084,0.548,2.281,1.601   c0.176,1.075-0.548,2.105-1.623,2.281C25.356,32.933,25.248,32.955,25.138,32.955L25.138,32.955z"/><path d="M44.11,68.531c-0.856,0-1.601-0.526-1.864-1.317c-0.373-1.03,0.176-2.172,1.206-2.521c0.987-0.352,2.149,0.197,2.501,1.206   c0.372,1.032-0.176,2.15-1.206,2.523C44.549,68.485,44.33,68.531,44.11,68.531L44.11,68.531z M41.763,61.906   c-0.833,0-1.579-0.527-1.864-1.315c-0.176-0.505-0.132-1.054,0.088-1.512c0.241-0.484,0.636-0.836,1.14-1.011   c0.987-0.352,2.15,0.218,2.5,1.207c0.176,0.504,0.154,1.031-0.065,1.512c-0.241,0.462-0.636,0.835-1.14,1.01   C42.225,61.864,42.005,61.906,41.763,61.906L41.763,61.906z M39.439,55.283c-0.834,0-1.58-0.526-1.864-1.315   c-0.176-0.506-0.155-1.032,0.087-1.514c0.22-0.483,0.636-0.834,1.118-1.009c1.009-0.353,2.172,0.218,2.522,1.205   c0.175,0.503,0.154,1.031-0.088,1.516c-0.219,0.48-0.614,0.83-1.118,1.006C39.877,55.24,39.658,55.283,39.439,55.283L39.439,55.283   z M37.114,48.66c-0.834,0-1.58-0.528-1.864-1.317c-0.176-0.504-0.153-1.031,0.087-1.514c0.219-0.46,0.614-0.833,1.119-1.008   c1.009-0.352,2.172,0.218,2.523,1.206c0.35,1.031-0.198,2.171-1.207,2.521C37.552,48.616,37.333,48.66,37.114,48.66L37.114,48.66z    M34.789,42.035c-0.856,0-1.601-0.527-1.865-1.315c-0.373-1.009,0.175-2.15,1.206-2.523c1.01-0.352,2.15,0.219,2.5,1.229   c0.176,0.481,0.155,1.031-0.064,1.49c-0.242,0.483-0.637,0.833-1.141,1.01C35.227,42.013,35.008,42.035,34.789,42.035   L34.789,42.035z M32.441,35.434c-0.833,0-1.579-0.548-1.864-1.338c-0.175-0.483-0.132-1.031,0.088-1.492   c0.241-0.482,0.636-0.833,1.141-1.009c0.986-0.373,2.149,0.199,2.5,1.208c0.373,1.008-0.176,2.149-1.206,2.522   C32.88,35.389,32.661,35.434,32.441,35.434L32.441,35.434z"/></g><g><g><path d="M66.61,67.792v24.199c0,1.816,1.474,3.29,3.29,3.29s3.29-1.474,3.29-3.29V67.792H66.61z"/><path d="M98.613,52.896L82.596,37.684c-0.671-0.667-1.732-1.076-2.624-1.076H66.914c-1.096,0-2.124,0.479-2.63,1.164l-6.3,7.78    l-7.608-7.356c-0.96-0.926-2.487-0.904-3.412,0.058c-0.925,0.958-0.9,2.485,0.057,3.412l9.502,9.186    c0.485,0.471,1.137,0.7,1.822,0.674c0.677-0.042,1.303-0.364,1.73-0.891l6.351-7.843l0.016,1.902l-0.005,14.339h-3.851    c-0.887,0-1.737,0.358-2.356,0.995L46.344,74.284c-1.268,1.302-1.242,3.384,0.06,4.652c0.64,0.623,1.468,0.934,2.296,0.934    c0.856,0,1.711-0.332,2.356-0.993l12.363-12.729c0,0,0.549-0.548,1.268-0.548h11.713c2.423,0,4.326-1.966,4.326-4.387    c0-0.146,0.018-16.519,0.018-16.519s-0.058-0.564,0.428-0.858c0.459-0.277,0.985,0.102,1.242,0.33l12.876,12.23    c0.467,0.441,1.064,0.665,1.662,0.665c0.638,0,1.274-0.253,1.75-0.753C99.617,55.344,99.579,53.816,98.613,52.896z"/></g></g><text x="0" y="115" fill="#000000" font-size="5px" font-weight="bold" font-family="'Helvetica Neue', Helvetica, Arial-Unicode, Arial, Sans-serif">Created by Luis Prado</text><text x="0" y="120" fill="#000000" font-size="5px" font-weight="bold" font-family="'Helvetica Neue', Helvetica, Arial-Unicode, Arial, Sans-serif">from the Noun Project</text></svg>