<svg xmlns="http://www.w3.org/2000/svg" xmlns:xlink="http://www.w3.org/1999/xlink" version="1.0" x="0px" y="0px" viewBox="0 0 100 125" enable-background="new 0 0 100 100" xml:space="preserve"><path d="M84.854,66.98c-0.589-2.165-1.62-2.902-2.815-3.757c-0.6-0.429-0.914-1.043-0.886-1.73c0.042-1.007,0.773-2.004,1.974-2.719  c1.066-0.581,1.567-1.814,1.166-2.868c-0.326-0.854-1.299-1.618-3.041-1.214c-1.577,0.37-2.977,1.766-3.841,3.828  c-0.774,1.847-1.138,4.395-0.205,5.927c0.59,0.969,0.905,1.407,2.816,2.556c0.262,0.157,0.608,0.445,0.593,1.127  c-0.023,1.031-0.849,2.237-1.569,2.626c-0.019,0.01-0.047,0.024-0.082,0.04c-1.125-6.125-8.212-14.443-13.081-16.509  c-0.046-0.055-0.089-0.113-0.129-0.178c-0.079-0.128-0.187-0.225-0.306-0.302c0.016-0.799,0.199-1.654,0.36-2.365  c0.05-0.219,0.096-0.422,0.132-0.604c0.316-1.582-0.05-2.555-0.714-4.321l-0.173-0.459c-0.021-0.073-0.051-0.215-0.092-0.403  c-0.512-2.352-1.145-4.662-2.744-4.824c-1.484-0.136-2.756,1.968-3.627,4.004c-1.292,0.093-3.736,0.504-4.213,2.281  c-0.282,1.052-1.214,1.81-1.77,2.264c-0.385,0.313-0.64,0.521-0.748,0.904c-0.261,0.943-0.08,2.698,0.672,4.002  c0.487,0.843,1.161,1.396,1.949,1.602c0.484,0.126,1.078,0.976,1.443,2.065c0.054,0.161,0.152,0.29,0.267,0.399  c0.002,0.009-0.001,0.017,0,0.026c0.748,3.524,0.509,11.869,0.43,14.611c-0.019,0.645-0.027,1.054-0.022,1.13  c0.007,0.122-0.03,0.258-0.078,0.43c-0.106,0.387-0.284,1.032,0.142,1.736c1.021,1.681,3.087,1.304,3.746,1.187  c0.229-0.03,1.193,0.122,2.035,0.249c1.847,0.278,4.573,0.688,7.385,0.688c2.268,0,4.591-0.268,6.551-1.087  c0.045-0.02,0.089-0.041,0.13-0.066c0.456-0.274,0.864-0.609,1.217-0.999c0.507-0.042,0.913-0.132,1.031-0.161  C83.281,74.661,85.707,70.102,84.854,66.98z M54.984,53.951c-0.326-0.085-0.571-0.409-0.72-0.666  c-0.437-0.756-0.552-1.76-0.51-2.262c0.035-0.028,0.074-0.06,0.116-0.094c0.695-0.566,1.989-1.621,2.438-3.297  c0.11-0.412,1.578-0.821,2.963-0.824c0.41-0.001,0.778-0.252,0.929-0.633c0.544-1.375,1.339-2.783,1.809-3.241  c0.217,0.317,0.559,1.124,0.998,3.145c0.071,0.331,0.13,0.563,0.16,0.645l0.187,0.497c0.604,1.604,0.829,2.204,0.625,3.224  c-0.033,0.167-0.076,0.354-0.122,0.557c-0.173,0.767-0.399,1.768-0.42,2.78c-1.965,1.175-4.197,2.041-5.983,2.623  C57.005,55.452,56.215,54.271,54.984,53.951z M78.237,74.166c-0.005,0.001-0.499,0.108-1.008,0.113  c-0.31,0.003-0.601,0.149-0.788,0.396c-0.252,0.334-0.549,0.606-0.903,0.829c-3.874,1.58-9.673,0.706-12.796,0.237  c-1.156-0.175-1.833-0.272-2.292-0.272c-0.145,0-0.268,0.01-0.377,0.029c-1.391,0.255-1.616-0.114-1.682-0.174  c0.002-0.04,0.034-0.16,0.059-0.247c0.071-0.262,0.17-0.619,0.147-1.056c-0.003-0.106,0.009-0.452,0.023-0.977  c0.083-2.87,0.292-10.147-0.312-14.19c2.021-0.715,4.729-2.092,6.357-2.957c0.083,0.069,0.177,0.126,0.278,0.165  c4.451,1.746,11.61,10.33,12.143,15.726c0.03,0.309,0.202,0.586,0.465,0.75c0.716,0.449,1.584,0.442,2.442-0.023  c1.432-0.771,2.582-2.677,2.621-4.34c0.028-1.24-0.527-2.267-1.563-2.888c-1.564-0.94-1.686-1.14-2.14-1.886  c-0.401-0.658-0.383-2.376,0.343-4.108c0.605-1.443,1.522-2.436,2.453-2.654c0.476-0.11,0.694-0.034,0.716-0.021  c0.02,0.05-0.022,0.272-0.286,0.418c-1.824,1.084-2.912,2.678-2.982,4.372c-0.058,1.365,0.57,2.619,1.721,3.441  c1.062,0.759,1.646,1.178,2.049,2.655v0.001C83.443,69.4,81.805,73.031,78.237,74.166z M45.479,50.239  c0.642-0.3,1.089-0.927,1.089-1.659c0-0.629-0.329-1.183-0.829-1.518c0.097-0.46,0.315-1.029,0.702-1.168  c0.192-0.068,0.561-0.165,1.027-0.289c2.402-0.643,4.836-1.357,5.89-2.414c1.143-1.157,2.009-4.833,0.851-6.414  c-0.954-1.306-4.176-1.424-6.068-1.381c-0.519-1.034-1.386-2.566-2.178-3.052c-0.764-0.469-2.132-0.601-3.113-0.632  c-0.003-1.735-0.312-3.854-1.749-4.203c-0.317-0.076-0.809-0.098-1.365,0.244c-1.749,1.074-3.73,6.204-5.893,15.219  c-0.26,0.049-0.501,0.147-0.716,0.279c-0.155,0.066-0.285,0.173-0.389,0.312c-0.35,0.357-0.568,0.834-0.568,1.362  c0,0.261,0.056,0.509,0.151,0.738c-1.905,4.944-7.011,18.757-7.593,26.222c-1.614-1.92-2.45-4.487-3.042-6.302  c-0.559-1.716-0.867-2.661-1.846-2.725c-0.567-0.036-1.054,0.311-1.4,1.038c-1.322,2.766-0.147,8.915,2.245,11.75  c1.574,1.865,4.298,2.491,6.1,2.006c1.169,0.702,2.653,0.96,4.291,0.96c2.397,0,5.12-0.552,7.653-1.064  c2.174-0.44,4.426-0.894,5.386-0.686c1.551,0.337,2.71,0.15,3.444-0.558c0.834-0.803,0.732-1.899,0.695-2.152L45.479,50.239z   M40.588,29.609c0.197,0.568,0.305,1.862,0.231,3.044c-0.018,0.282,0.086,0.559,0.283,0.761s0.47,0.326,0.753,0.301  c1.146-0.043,2.646,0.081,3.057,0.334c0.315,0.216,1.112,1.522,1.706,2.795c0.172,0.368,0.552,0.597,0.957,0.577  c2.224-0.115,4.61,0.146,5.024,0.547c0.414,0.59-0.036,3.182-0.662,3.816c-0.758,0.76-3.614,1.523-4.986,1.89  c-0.54,0.145-0.967,0.261-1.187,0.34c-1.226,0.438-1.731,1.595-1.94,2.434c-2.348-0.57-5.612-1.789-7.918-2.704  c-0.048-0.062-0.098-0.122-0.153-0.178C38.032,34.048,39.791,30.414,40.588,29.609z M46.165,74.869  c-0.058,0.053-0.411,0.306-1.629,0.04c-1.371-0.296-3.505,0.133-6.207,0.681c-3.882,0.787-8.711,1.765-10.793,0.162  c-0.179-0.138-0.394-0.208-0.61-0.208c-0.143,0-0.286,0.03-0.421,0.093c-0.814,0.378-3.063,0.182-4.294-1.277  c-1.521-1.802-2.395-5.386-2.314-7.803c0.77,2.347,2.051,5.966,4.841,8.11l0.344,0.286c0.314,0.263,0.757,0.306,1.113,0.112  c0.359-0.193,0.565-0.585,0.521-0.99c-0.519-4.695,3.513-17.353,7.264-27.156c2.952,0.98,7.521,2.473,9.462,3.107l2.826,24.376  c0,0.006,0.005,0.035,0.006,0.04C46.272,74.445,46.305,74.74,46.165,74.869z"/></svg>
