<svg xmlns="http://www.w3.org/2000/svg" xmlns:xlink="http://www.w3.org/1999/xlink" viewBox="0 0 60 72.5" version="1.1" x="0px" y="0px"><title>2 -Recycling Sign- (Outline)</title><desc>Created with Sketch.</desc><g stroke="none" stroke-width="1" fill="none" fill-rule="evenodd"><g transform="translate(-240.000000, -350.000000)" fill="#000000"><g transform="translate(239.000000, 350.000000)"><path d="M15.278066,22.125286 L18.168229,32.2408565 L15.6925196,30.2350154 C15.1967758,29.8333595 14.4567595,29.992411 14.1698267,30.5622873 L6.10450471,46.5808017 L3.56146908,40.2235903 C3.19064221,39.2956358 3,38.3055553 3,37.307 C3,35.9727923 3.34028235,34.6595932 3.98847053,33.4910786 L7.87413369,26.4976854 C8.136081,26.0262342 7.97697202,25.4319928 7.51449576,25.1545071 L4.9296924,23.6036251 L15.278066,22.125286 Z M2.23986631,32.5203146 C1.42678793,33.9860828 1,35.6331196 1,37.307 C1,38.5598645 1.23914218,39.8018247 1.70440091,40.9660845 L5.07153092,49.3834097 C5.39150683,50.183302 6.50573791,50.231197 6.89317325,49.4617127 L15.3979472,32.5704039 L19.3704804,35.7889846 C20.1298146,36.4042037 21.2300044,35.6769603 20.9615239,34.7372789 L16.9615239,20.7372789 C16.8242353,20.2567688 16.3532941,19.9513769 15.8585786,20.0220505 L1.85857864,22.0220505 C0.926552787,22.1551971 0.678184696,23.3851012 1.48550424,23.8694929 L5.65607787,26.3718371 L2.23986631,32.5203146 Z"/><path d="M5,49.012 C5,52.3282847 7.68371525,55.012 11,55.012 C11.5522847,55.012 12,54.5642847 12,54.012 C12,53.4597153 11.5522847,53.012 11,53.012 C8.78828475,53.012 7,51.2237153 7,49.012 C7,48.4597153 6.55228475,48.012 6,48.012 C5.44771525,48.012 5,48.4597153 5,49.012 Z"/><path d="M21,53.012 L11,53.012 C10.4477153,53.012 10,53.4597153 10,54.012 C10,54.5642847 10.4477153,55.012 11,55.012 L22,55.012 C22.5522847,55.012 23,54.5642847 23,54.012 L23,42.012 C23,41.4597153 22.5522847,41.012 22,41.012 L10,41.012 C9.44771525,41.012 9,41.4597153 9,42.012 C9,42.5642847 9.44771525,43.012 10,43.012 L21,43.012 L21,53.012 Z"/><path d="M46.2069439,19.9478195 L35.7171928,19.1443615 L38.4580059,17.5197302 C39.0068509,17.1943994 39.1147894,16.4452411 38.6801083,15.9782043 L26.4615468,2.85014752 L33.3058033,2.67416962 C34.305379,2.64842566 35.3004568,2.81367243 36.2360918,3.16099149 C37.4886333,3.62437038 38.6015659,4.39956197 39.4696089,5.41301773 L44.679064,11.4865487 C45.0301601,11.89588 45.6425879,11.9530891 46.0634223,11.6158666 L48.4155776,9.73104059 L46.2069439,19.9478195 Z M40.988136,4.11145134 C39.8989439,2.83979974 38.5020135,1.86679492 36.931068,1.28562302 C35.7573225,0.849913832 34.5085101,0.642530837 33.2543537,0.674831492 L24.1923967,0.907830384 C23.3311643,0.929974189 22.8991438,1.95815802 23.4860917,2.5887957 L36.3704335,16.4321905 L31.9721941,19.0392698 C31.1314872,19.5376032 31.4312788,20.8219419 32.4057291,20.8965795 L46.9237291,22.0085795 C47.4219876,22.0467434 47.8719335,21.7112316 47.9775221,21.2227963 L50.9655221,7.40079628 C51.1644514,6.48058159 50.0974703,5.82041049 49.3627777,6.40913342 L45.5674902,9.4503682 L40.988136,4.11145134 Z"/><path d="M24.5654144,0.969651239 C21.4556615,-0.182109082 18.0074253,1.40202525 16.8544691,4.51176756 C16.662477,5.0296068 16.9266283,5.60503879 17.4444676,5.79703089 C17.9623068,5.98902299 18.5377388,5.72487168 18.7297309,5.20703244 C19.4988336,3.1326161 21.7966971,2.07696783 23.8707856,2.84514876 C24.38869,3.03696518 24.9640323,2.7726187 25.1558488,2.25471436 C25.3476652,1.73681002 25.0833187,1.16146766 24.5654144,0.969651239 Z"/><path d="M15.2564702,14.5839009 L18.7301301,5.20656469 C18.9219743,4.68867065 18.6576587,4.1133141 18.1397647,3.92146988 C17.6218706,3.72962566 17.0465141,3.99394127 16.8546699,4.51183531 L13.0336699,14.8268353 C12.8418353,15.3447034 13.1061144,15.9200343 13.6239689,16.1119055 L24.8759689,20.2809055 C25.39386,20.4727903 25.9692458,20.2085005 26.1611156,19.6906039 L30.3301156,8.43760392 C30.5219815,7.9197179 30.2576899,7.3443503 29.7398039,7.15248441 C29.2219179,6.96061853 28.6465503,7.22491007 28.4546844,7.74279608 L24.6330984,18.0580533 L15.2564702,14.5839009 Z"/><path d="M38,42.012 C38,42.5642847 38.4477153,43.012 39,43.012 L55,43.012 C55.5522847,43.012 56,42.5642847 56,42.012 C56,41.4597153 55.5522847,41.012 55,41.012 L40,41.012 L40,37.012 C40,36.0955158 38.8698014,35.661818 38.2567059,36.3430353 L29.2567059,46.3430353 C28.8872468,46.7535453 28.9205252,47.3858351 29.3310353,47.7552941 C29.7415453,48.1247532 30.3738351,48.0914748 30.7432941,47.6809647 L38,39.6179582 L38,42.012 Z"/><path d="M52.7047584,27.4106782 L59.1563385,37.5488755 C59.4528467,38.0148169 60.0709341,38.1521696 60.5368755,37.8556615 C61.0028169,37.5591533 61.1401696,36.9410659 60.8436615,36.4751245 L53.8436615,25.4751245 C53.5426832,25.0021586 52.9117563,24.8689787 52.4452998,25.1799497 L43.4452998,31.1799497 C42.9573268,31.5052651 42.8527659,32.1787385 43.2191312,32.636695 L51.2191312,42.636695 C51.5641407,43.067957 52.1934331,43.1378784 52.624695,42.7928688 C53.055957,42.4478593 53.1258784,41.8185669 52.7808688,41.387305 L45.4622425,32.2390221 L52.7047584,27.4106782 Z"/><path d="M47.372,53.012 C49.610935,53.012 51.7576442,52.161715 53.3679458,50.626861 C56.0247582,48.095977 58.3399463,44.7027063 59.9385107,40.3572502 C60.1291871,39.8389251 59.8635754,39.2641658 59.3452502,39.0734893 C58.8269251,38.8828129 58.2521658,39.1484246 58.0614893,39.6667498 C56.5730741,43.712782 54.4316676,46.8513485 51.988261,49.1789419 C50.7515659,50.3576939 49.0996436,51.012 47.372,51.012 L39,51.012 C38.4477153,51.012 38,51.4597153 38,52.012 L38,54.4060418 L30.7432941,46.3430353 C30.3738351,45.9325252 29.7415453,45.8992468 29.3310353,46.2687059 C28.9205252,46.6381649 28.8872468,47.2704547 29.2567059,47.6809647 L38.2567059,57.6809647 C38.8698014,58.362182 40,57.9284842 40,57.012 L40,53.012 L47.372,53.012 Z"/><path d="M59,37.012 C59,39.2237153 57.2117153,41.012 55,41.012 C54.4477153,41.012 54,41.4597153 54,42.012 C54,42.5642847 54.4477153,43.012 55,43.012 C58.3162847,43.012 61,40.3282847 61,37.012 C61,36.4597153 60.5522847,36.012 60,36.012 C59.4477153,36.012 59,36.4597153 59,37.012 Z"/></g></g></g></svg>
