<svg xmlns="http://www.w3.org/2000/svg" xmlns:xlink="http://www.w3.org/1999/xlink" version="1.1" x="0px" y="0px" viewBox="0 0 100 125" enable-background="new 0 0 100 100" xml:space="preserve"><g><circle cx="62.562" cy="41.811" r="7.291"/><path d="M38.428,43.604c-0.025,0.001-0.048,0.008-0.073,0.008c-0.004,0-0.007-0.002-0.012-0.002v-0.098   c-0.027,0.001-0.054,0.008-0.081,0.008c-0.472,0-0.9-0.19-1.208-0.501c-0.001-0.001-0.003-0.003-0.004-0.004   c-0.113-0.113-0.204-0.248-0.281-0.389c-0.075-0.146-0.146-0.298-0.178-0.464c-0.024-0.115-0.037-0.232-0.037-0.353   c0-0.122,0.013-0.239,0.037-0.354c0.164-0.825,0.891-1.446,1.765-1.446c0.025,0,0.048,0.006,0.073,0.007   c0.919-12.53,11.37-22.414,24.134-22.414H35.098c-12.795,0-23.266,9.93-24.142,22.503c0.92,0.028,1.657,0.778,1.657,1.704   c0,0.009-0.003,0.017-0.003,0.025c-0.001,0.107-0.011,0.214-0.032,0.315c-0.009,0.047-0.028,0.09-0.042,0.136   c-0.018,0.061-0.032,0.123-0.056,0.181c-0.028,0.066-0.065,0.126-0.101,0.188c-0.019,0.031-0.032,0.066-0.052,0.097   c-0.052,0.078-0.112,0.149-0.177,0.218c-0.008,0.01-0.016,0.021-0.024,0.03c-0.299,0.306-0.713,0.499-1.172,0.515l0,0   c-0.018,0-0.034,0.005-0.053,0.005h0v37.165h0c0.945,0,1.71,0.768,1.71,1.71v0.001h3.419v-0.001c0-0.942,0.765-1.71,1.71-1.71   s1.71,0.768,1.71,1.71v0.001h3.42v-0.001c0-0.942,0.766-1.71,1.709-1.71c0.945,0,1.71,0.768,1.71,1.71v0.001h3.42v-0.001   c0-0.942,0.766-1.71,1.71-1.71s1.71,0.768,1.71,1.71v0.001h3.419v-0.001c0-0.942,0.765-1.71,1.709-1.71   c0.027,0,0.054,0.008,0.081,0.01V66.019h24.219C49.798,66.019,39.347,56.136,38.428,43.604z M31.423,40.101   c0.944,0,1.71,0.767,1.71,1.71c0,0.029-0.007,0.058-0.009,0.086c-0.041,0.787-0.606,1.437-1.357,1.59   c-0.112,0.022-0.227,0.034-0.345,0.034c-0.118,0-0.234-0.012-0.345-0.034c-0.751-0.153-1.316-0.803-1.357-1.59   c-0.001-0.028-0.008-0.057-0.008-0.086C29.712,40.867,30.479,40.101,31.423,40.101z M24.583,40.101c0.945,0,1.71,0.767,1.71,1.71   c0,0.042-0.009,0.083-0.013,0.126c-0.066,0.885-0.795,1.584-1.697,1.584c-0.901,0-1.63-0.699-1.696-1.584   c-0.003-0.043-0.013-0.084-0.013-0.126C22.873,40.867,23.639,40.101,24.583,40.101z M17.743,40.101c0.945,0,1.71,0.767,1.71,1.71   c0,0.042-0.01,0.083-0.013,0.126c-0.058,0.769-0.614,1.398-1.353,1.55c-0.111,0.022-0.227,0.034-0.345,0.034   c-0.901,0-1.631-0.699-1.697-1.584c-0.003-0.043-0.013-0.084-0.013-0.126C16.033,40.867,16.798,40.101,17.743,40.101z"/></g></svg>
