<svg xmlns:dc="http://purl.org/dc/elements/1.1/" xmlns:cc="http://creativecommons.org/ns#" xmlns:rdf="http://www.w3.org/1999/02/22-rdf-syntax-ns#" xmlns:svg="http://www.w3.org/2000/svg" xmlns="http://www.w3.org/2000/svg" xmlns:sodipodi="http://sodipodi.sourceforge.net/DTD/sodipodi-0.dtd" xmlns:inkscape="http://www.inkscape.org/namespaces/inkscape" version="1.1" x="0px" y="0px" viewBox="0 0 100 125"><g transform="translate(0,-952.36218)"><path style="text-indent:0;text-transform:none;direction:ltr;block-progression:tb;baseline-shift:baseline;color:#000000;enable-background:accumulate;" d="m 41.8125,957.36215 c -0.81513,0.0773 -1.54894,0.70628 -1.75,1.5 l -1.71875,6.5 -19.34375,0 c -0.73958,0.006 -1.45769,0.45993 -1.78125,1.125 -0.92437,2.17679 -2.1886,4.64092 -2.21875,6.875 4e-5,1.04719 0.95281,1.99996 2,2 l 66,0 c 1.04719,-4e-5 1.99996,-0.95281 2,-2 -0.34163,-2.42143 -1.27591,-4.76767 -2.125,-6.68745 -0.0144,-0.0302 -0.0203,-0.0395 -0.0312,-0.0625 -0.0151,-0.0362 -0.0273,-0.0536 -0.0312,-0.0625 -0.46722,-0.79184 -1.16829,-0.99728 -1.8126,-1.18754 l -19.4375,0 -1.625,-6.46875 C 59.72954,958.03092 58.88721,957.3652 58,957.36216 c -5.38978,0 -10.8118,0 -16.1875,-10e-6 z m 1.75,4 12.875,0 1,4.03125 -14.96875,0 z m -23.28125,8 c 19.85363,0.0311 39.58687,0 59.4375,0 0.34834,0.66686 0.56145,1.38974 0.71875,2 l -60.875,0 c 0.14565,-0.74366 0.4635,-1.43195 0.71875,-2 z m 1.53125,8 c -1.00435,0.094 -1.84833,1.05439 -1.8125,2.0625 l 2,66.00005 c 0.0322,1.0261 0.97334,1.9379 2,1.9375 l 52,0 c 1.02666,4e-4 1.96783,-0.9114 2,-1.9375 l 2,-66.00005 c 0.0333,-1.06782 -0.93167,-2.06293 -2,-2.0625 -18.72506,0 -37.47574,0 -56.1875,0 z m 2.25,4 51.875,0 -1.875,62.00005 -48.125,0 z m 17.8125,15 c -1.63932,0.088 -1.60594,1.98676 -1.03125,3.68745 -5.61779,3.7386 -8.28853,11.0758 -6.0625,17.8751 0.27112,1.0721 1.51342,1.7618 2.53125,1.4062 1.01783,-0.3555 1.60437,-1.6663 1.1875,-2.6875 -1.52561,-4.6598 0.0103,-9.6318 3.53125,-12.5313 0.54631,1.1933 2.35252,1.4714 3.21875,0.5 1.003,-1.1372 2.03561,-2.341 2.90625,-3.375 0.82603,-0.9906 0.3495,-2.77919 -0.84375,-3.21869 -1.94152,-0.44386 -3.75139,-1.41061 -5.4375,-1.65626 z m 7.78125,3.40626 c -0.0601,0.98349 0.68325,1.95629 1.625,2.12499 4.88381,1.0905 8.25415,5.315 8.625,10.1875 -1.51831,-0.2575 -2.98865,1.3168 -2.40625,2.5938 0.44871,1.4523 0.9467,2.9459 1.375,4.25 0.41265,1.2403 2.15598,1.7243 3.125,0.875 1.17859,-1.0517 2.36284,-2.0784 3.375,-2.9688 1.354,-1.7846 0.3698,-3.447 -1.5,-3.75 0.0442,-7.1281 -4.76393,-13.58939 -11.78125,-15.15625 -1.25467,-0.10406 -2.09375,0.45476 -2.4375,1.84376 z m -10.4375,19.81249 c -1.08914,0.1026 -1.95946,1.2996 -1.75,2.4063 0.30904,1.5489 0.561,2.9548 0.84375,4.5 0.90191,2.2858 2.89781,2.0691 4.0625,0.3125 5.55526,2.7961 12.43362,1.8167 17.03125,-2.8125 0.72116,-1.1621 0.64248,-1.9074 0,-2.875 -1.03033,-0.8417 -1.83698,-0.5655 -2.78125,0 -3.09912,3.1204 -7.54628,4.0175 -11.40625,2.5937 0.78632,-1.0821 0.12696,-2.9081 -1.15625,-3.1875 -1.70536,-0.2764 -3.38754,-0.7583 -4.84375,-0.9375 z" fill="#000000" fill-opacity="1" stroke="none" marker="none" visibility="visible" display="inline" overflow="visible"/></g></svg>
