<svg xmlns="http://www.w3.org/2000/svg" xmlns:xlink="http://www.w3.org/1999/xlink" version="1.1" x="0px" y="0px" viewBox="0 0 100 125" enable-background="new 0 0 100 100" xml:space="preserve"><g><circle cx="61.9" cy="12.62" r="7.393"/><path d="M33.452,43.293c-7.895,0-14.293,15.799-14.293,24.622s6.399,11.649,14.293,11.649c7.893,0,14.292-2.826,14.292-11.649   S41.345,43.293,33.452,43.293z"/><path d="M71.69,22.224c-0.008-0.001-0.015-0.004-0.022-0.006c-0.258-0.082-0.513-0.172-0.781-0.231   c-0.121-0.027-0.241-0.031-0.363-0.043c-1.5-0.28-3.766-0.443-7.387-0.443l0.004,0.006c-0.401-0.003-0.826-0.006-1.276-0.006   c-10.732,0-9.729,1.404-11.334,3.209c-1.604,1.806-7.522,10.532-7.522,10.532l-11.448,0.104c-1.847,0-3.345,1.498-3.345,3.348   c0,1.847,1.498,3.346,3.345,3.346l14.157-0.179c0,0,0.603,0,1.606-1.103c1.001-1.102,5.516-7.322,5.516-7.322l0.301,57.046v0.003   c0,2.342,1.897,4.237,4.237,4.237s4.238-1.896,4.238-4.237c0-0.027-0.004-0.052-0.005-0.076h0.056V57.007h1.453v33.479   c0,2.366,1.92,4.288,4.288,4.288c2.227,0,4.053-1.698,4.267-3.866h0.021V32.935l-0.036-0.169l0.573-1.641   c1.191,2.538,2.319,7.214,2.319,15.825v9.438c0,1.737,1.408,3.146,3.146,3.146c1.737,0,3.146-1.409,3.146-3.146v-9.438   C80.842,32.478,77.759,24.18,71.69,22.224z"/></g></svg>
