<svg xmlns="http://www.w3.org/2000/svg" xmlns:xlink="http://www.w3.org/1999/xlink" version="1.1" x="0px" y="0px" viewBox="0 0 100 100" enable-background="new 0 0 100 100" xml:space="preserve"><path fill="#000000" d="M86.114,24.883c-0.488-0.554-1.193-0.872-1.932-0.872H15.958c-0.74,0-1.443,0.318-1.932,0.872  c-0.489,0.555-0.717,1.292-0.624,2.026l8.087,64.383c0.162,1.288,1.258,2.255,2.557,2.255h52.046c1.299,0,2.396-0.967,2.558-2.255  l8.089-64.383C86.831,26.175,86.604,25.438,86.114,24.883z M58.843,52.007c-2.185,0.689-3.771,2.732-3.771,5.146  c0,1.218,0.409,2.338,1.09,3.241c-0.681,0.903-1.09,2.022-1.09,3.241c0,2.414,1.587,4.455,3.771,5.146  c-0.109,0.427-0.173,0.873-0.173,1.335c0,1.4,0.538,2.671,1.412,3.631c-2.081,1.081-4.441,1.696-6.949,1.696  c-1.05,0-2.072-0.106-3.062-0.312c-0.99,0.205-2.013,0.312-3.062,0.312c-2.509,0-4.869-0.615-6.95-1.696  c0.875-0.96,1.413-2.23,1.413-3.631c0-0.462-0.064-0.908-0.173-1.335c2.185-0.69,3.771-2.731,3.771-5.146  c0-1.219-0.41-2.338-1.09-3.241c0.68-0.903,1.09-2.023,1.09-3.241c0-2.413-1.586-4.456-3.771-5.146  c0.109-0.428,0.173-0.874,0.173-1.335c0-1.423-0.555-2.714-1.456-3.678c2.09-1.096,4.467-1.719,6.993-1.719  c0.459,0,0.913,0.024,1.362,0.065c0.069-0.566,0.858-6.251,4.637-8.631c0.805-0.507,1.864-0.265,2.369,0.538  c0.506,0.803,0.265,1.863-0.538,2.369c-1.863,1.173-2.729,4.197-2.994,5.719c0.425-0.036,0.854-0.059,1.288-0.059  c2.524,0,4.901,0.623,6.992,1.719c-0.9,0.964-1.455,2.255-1.455,3.678C58.67,51.133,58.733,51.579,58.843,52.007z"></path><path fill="#000000" d="M85.189,12.147H60.02c0.002-0.046,0.007-0.091,0.007-0.138c0-2.372-1.923-4.294-4.295-4.294H44.46  c-2.372,0-4.294,1.922-4.294,4.294c0,0.047,0.005,0.092,0.007,0.138h-25.17c-2.372,0-4.294,1.922-4.294,4.294  c0,2.372,1.922,4.294,4.294,4.294h70.187c2.372,0,4.295-1.922,4.295-4.294C89.484,14.07,87.562,12.147,85.189,12.147z"></path></svg>
